<mxfile host="65bd71144e">
    <diagram id="zvlq6U86YkZSIvmxq30o" name="Page-1">
        <mxGraphModel dx="2563" dy="926" grid="1" gridSize="10" guides="1" tooltips="1" connect="1" arrows="1" fold="1" page="1" pageScale="1" pageWidth="850" pageHeight="1100" math="0" shadow="0">
            <root>
                <mxCell id="0"/>
                <mxCell id="1" parent="0"/>
                <mxCell id="9" style="edgeStyle=none;html=1;" edge="1" parent="1" source="2">
                    <mxGeometry relative="1" as="geometry">
                        <mxPoint x="-290" y="200" as="targetPoint"/>
                    </mxGeometry>
                </mxCell>
                <mxCell id="2" value="start" style="strokeWidth=2;html=1;shape=mxgraph.flowchart.terminator;whiteSpace=wrap;fillColor=#FF9999;" vertex="1" parent="1">
                    <mxGeometry x="-340" y="110" width="100" height="60" as="geometry"/>
                </mxCell>
                <mxCell id="10" style="edgeStyle=none;html=1;" edge="1" parent="1">
                    <mxGeometry relative="1" as="geometry">
                        <mxPoint x="-290" y="320" as="targetPoint"/>
                        <mxPoint x="-290" y="280" as="sourcePoint"/>
                    </mxGeometry>
                </mxCell>
                <mxCell id="11" style="edgeStyle=none;html=1;" edge="1" parent="1" source="4">
                    <mxGeometry relative="1" as="geometry">
                        <mxPoint x="-290" y="430" as="targetPoint"/>
                    </mxGeometry>
                </mxCell>
                <mxCell id="4" value="input age" style="shape=parallelogram;html=1;strokeWidth=2;perimeter=parallelogramPerimeter;whiteSpace=wrap;rounded=1;arcSize=12;size=0.23;fillColor=#FFFF99;" vertex="1" parent="1">
                    <mxGeometry x="-395" y="340" width="210" height="60" as="geometry"/>
                </mxCell>
                <mxCell id="12" style="edgeStyle=none;html=1;exitX=0.5;exitY=1;exitDx=0;exitDy=0;exitPerimeter=0;" edge="1" parent="1" source="5">
                    <mxGeometry relative="1" as="geometry">
                        <mxPoint x="-290" y="560" as="targetPoint"/>
                    </mxGeometry>
                </mxCell>
                <mxCell id="5" value="age&amp;gt;=18?" style="strokeWidth=2;html=1;shape=mxgraph.flowchart.decision;whiteSpace=wrap;fillColor=#99FF99;" vertex="1" parent="1">
                    <mxGeometry x="-340" y="440" width="100" height="100" as="geometry"/>
                </mxCell>
                <mxCell id="20" style="edgeStyle=none;html=1;" edge="1" parent="1">
                    <mxGeometry relative="1" as="geometry">
                        <mxPoint x="-280" y="670" as="targetPoint"/>
                        <mxPoint x="-280" y="630" as="sourcePoint"/>
                    </mxGeometry>
                </mxCell>
                <mxCell id="7" value="stop" style="strokeWidth=2;html=1;shape=mxgraph.flowchart.terminator;whiteSpace=wrap;fillColor=#FF9999;" vertex="1" parent="1">
                    <mxGeometry x="-360" y="730" width="160" height="60" as="geometry"/>
                </mxCell>
                <mxCell id="14" value="input age" style="strokeWidth=2;html=1;shape=mxgraph.flowchart.display;whiteSpace=wrap;fillColor=#9999FF;" vertex="1" parent="1">
                    <mxGeometry x="-360" y="210" width="120" height="60" as="geometry"/>
                </mxCell>
                <mxCell id="23" value="" style="strokeWidth=2;html=1;shape=mxgraph.flowchart.start_2;whiteSpace=wrap;" vertex="1" parent="1">
                    <mxGeometry x="-292.5" y="670" width="25" height="25" as="geometry"/>
                </mxCell>
                <mxCell id="24" style="edgeStyle=none;html=1;exitX=0.5;exitY=1;exitDx=0;exitDy=0;exitPerimeter=0;entryX=0.5;entryY=0;entryDx=0;entryDy=0;entryPerimeter=0;" edge="1" parent="1" source="23" target="7">
                    <mxGeometry relative="1" as="geometry"/>
                </mxCell>
                <mxCell id="25" style="edgeStyle=none;html=1;exitX=1;exitY=0.5;exitDx=0;exitDy=0;exitPerimeter=0;entryX=1;entryY=0.5;entryDx=0;entryDy=0;entryPerimeter=0;" edge="1" parent="1" source="5" target="23">
                    <mxGeometry relative="1" as="geometry">
                        <Array as="points">
                            <mxPoint x="-100" y="490"/>
                            <mxPoint x="-100" y="680"/>
                        </Array>
                    </mxGeometry>
                </mxCell>
                <mxCell id="26" value="no" style="text;html=1;align=center;verticalAlign=middle;resizable=0;points=[];autosize=1;strokeColor=none;fillColor=none;" vertex="1" parent="1">
                    <mxGeometry x="-120" y="448" width="40" height="30" as="geometry"/>
                </mxCell>
                <mxCell id="27" value="yes" style="text;html=1;align=center;verticalAlign=middle;resizable=0;points=[];autosize=1;strokeColor=none;fillColor=none;" vertex="1" parent="1">
                    <mxGeometry x="-260" y="538" width="40" height="30" as="geometry"/>
                </mxCell>
                <mxCell id="29" value="&quot;You are an adult&quot;" style="strokeWidth=2;html=1;shape=mxgraph.flowchart.display;whiteSpace=wrap;fillColor=#9999FF;" vertex="1" parent="1">
                    <mxGeometry x="-370" y="560" width="140" height="68" as="geometry"/>
                </mxCell>
            </root>
        </mxGraphModel>
    </diagram>
</mxfile>